<?xml version="1.0" standalone="no"?>
<!DOCTYPE svg PUBLIC "-//W3C//DTD SVG 20010904//EN"
 "http://www.w3.org/TR/2001/REC-SVG-20010904/DTD/svg10.dtd">
<svg version="1.0" xmlns="http://www.w3.org/2000/svg"
 width="4000.000000pt" height="4000.000000pt" viewBox="0 0 4000.000000 4000.000000"
 preserveAspectRatio="xMidYMid meet">

<g transform="translate(0.000000,4000.000000) scale(0.100000,-0.100000)"
fill="#000000" stroke="none">
<path d="M0 20000 l0 -20000 20000 0 20000 0 0 20000 0 20000 -20000 0 -20000
0 0 -20000z m24010 3816 c439 -58 882 -200 1225 -393 173 -97 430 -276 423
-294 -2 -4 -149 -180 -326 -393 l-324 -386 -41 34 c-74 60 -215 147 -335 206
-649 322 -1472 329 -2061 20 -244 -129 -425 -307 -520 -512 -50 -108 -71 -203
-71 -327 0 -269 119 -515 365 -755 77 -75 217 -183 307 -237 32 -19 58 -36 58
-39 0 -9 -1316 -164 -1334 -157 -26 10 -151 209 -216 342 -256 526 -263 1079
-19 1593 104 220 230 393 420 577 435 421 1032 673 1749 739 108 9 580 -3 700
-18z m-15430 -2410 c0 -1411 -4 -2357 -9 -2360 -5 -4 -216 -31 -468 -61 -252
-30 -475 -58 -495 -61 l-38 -6 0 2421 0 2421 505 0 505 0 0 -2354z m9082 590
c455 -968 826 -1761 824 -1764 -8 -8 -1041 -129 -1048 -123 -4 3 -259 544
-568 1201 -309 657 -563 1196 -564 1197 -1 1 -254 -596 -561 -1328 -308 -732
-562 -1334 -565 -1339 -6 -9 -1101 -143 -1131 -138 -16 3 105 297 828 2013
465 1106 845 2018 845 2028 -1 16 30 17 556 15 l556 -3 828 -1759z m14798
1259 l0 -505 -1255 0 -1255 0 0 -575 c0 -453 -3 -575 -12 -575 -7 0 -231 -27
-498 -59 -267 -32 -488 -57 -492 -54 -5 2 -8 287 -8 634 l0 629 -1197 2 -1198
3 -3 503 -2 502 2960 0 2960 0 0 -505z m-2510 -4480 l0 -2495 -505 0 -505 0 0
2430 c0 2081 2 2431 14 2436 12 5 925 119 979 123 16 1 17 -124 17 -2494z
m-6370 1680 c909 -165 1672 -674 2047 -1365 171 -313 255 -704 224 -1035 -66
-697 -505 -1287 -1216 -1635 -432 -212 -875 -310 -1392 -310 -655 0 -1283 176
-1803 503 -107 67 -280 194 -280 206 0 12 641 771 651 771 5 0 42 -24 82 -53
98 -72 136 -95 247 -154 554 -296 1317 -355 1880 -146 441 164 733 445 805
777 21 94 16 286 -10 381 -24 90 -116 270 -183 360 -160 214 -420 413 -716
546 -192 87 -343 129 -716 200 -471 89 -959 300 -1313 568 -101 76 -237 191
-237 200 0 8 1749 219 1775 214 11 -2 81 -14 155 -28z m-4100 -2321 c459 -977
843 -1793 852 -1815 l17 -39 -557 0 -557 0 -823 1751 c-453 963 -822 1753
-820 1754 5 6 968 122 1013 123 l40 1 835 -1775z m-4453 1339 c-2 -5 -305
-725 -673 -1600 l-669 -1593 -547 0 -547 0 14 33 c448 1071 1269 3015 1276
3022 5 6 256 40 557 77 589 71 595 72 589 61z m-6449 -1476 l2 -707 1643 -2
1642 -3 3 -502 2 -503 -2150 0 -2150 0 0 1154 0 1154 98 12 c53 6 275 33 492
60 217 26 400 47 405 45 7 -1 11 -247 13 -708z"/>
</g>
</svg>
