<?xml version="1.0" encoding="UTF-8"?>
<svg xmlns="http://www.w3.org/2000/svg" viewBox="0 0 211.03 211.03">
  <defs>
    <style>
      .cls-1 {
        fill: #000;
      }

      .cls-1, .cls-2 {
        stroke-width: 0px;
      }

      .cls-2 {
        fill: #fff;
      }
    </style>
  </defs>
  <g id="Layer_2" data-name="Layer 2">
    <rect class="cls-1" width="211.03" height="211.03"/>
  </g>
  <g id="Layer_1" data-name="Layer 1">
    <g>
      <path class="cls-2" d="M43.68,82.35h4.79v35.91h18.47v4.45h-23.25v-40.35Z"/>
      <path class="cls-2" d="M85.28,82.35h4.5l17.16,40.35h-5.59l-4.1-9.92h-20.18l-4.16,9.92h-5.41l17.78-40.35ZM87.45,88.51h-.11l-8.38,19.83h16.47l-7.98-19.83Z"/>
      <path class="cls-2" d="M131.44,89.48c-.8-1.29-1.86-2.23-3.19-2.82-1.33-.59-2.72-.88-4.16-.88-1.06,0-2.11.13-3.13.4-1.03.27-1.95.67-2.76,1.2-.82.53-1.47,1.23-1.97,2.11-.49.87-.74,1.9-.74,3.08,0,.91.14,1.72.43,2.42.28.7.75,1.34,1.4,1.91.65.57,1.52,1.1,2.62,1.6,1.1.49,2.45.99,4.05,1.48,1.56.49,3.07,1.03,4.53,1.6,1.46.57,2.75,1.29,3.88,2.17,1.12.87,2.01,1.97,2.68,3.28.66,1.31,1,2.95,1,4.93s-.4,3.76-1.2,5.24-1.85,2.71-3.16,3.68c-1.31.97-2.82,1.69-4.53,2.17-1.71.47-3.48.71-5.3.71-1.18,0-2.36-.1-3.53-.31-1.18-.21-2.31-.53-3.39-.97-1.08-.44-2.1-1.01-3.05-1.71-.95-.7-1.77-1.57-2.45-2.59l4.1-3.36c.87,1.48,2.09,2.6,3.65,3.36,1.56.76,3.21,1.14,4.96,1.14,1.03,0,2.06-.15,3.11-.46,1.04-.3,1.98-.75,2.82-1.34.84-.59,1.52-1.32,2.05-2.19.53-.87.8-1.88.8-3.02,0-1.25-.21-2.27-.63-3.05-.42-.78-1.06-1.45-1.94-2.02-.87-.57-1.98-1.08-3.31-1.54-1.33-.46-2.89-.99-4.67-1.6-1.44-.46-2.77-.98-3.99-1.57-1.22-.59-2.27-1.31-3.16-2.17-.89-.85-1.6-1.88-2.11-3.08-.51-1.2-.77-2.63-.77-4.3,0-1.94.38-3.63,1.14-5.07.76-1.44,1.79-2.65,3.08-3.62,1.29-.97,2.75-1.7,4.39-2.19,1.63-.49,3.34-.74,5.13-.74,2.28,0,4.36.35,6.24,1.05,1.88.7,3.56,1.93,5.04,3.68l-3.93,3.42Z"/>
      <path class="cls-2" d="M171.05,86.8h-13.34v35.91h-4.79v-35.91h-13.34v-4.45h31.46v4.45Z"/>
    </g>
    <rect class="cls-1" x="39.87" y="101.14" width="119.2" height="1.85" transform="translate(-5.03 5.16) rotate(-2.9)"/>
  </g>
</svg>